<svg width="32" height="32" viewBox="0 0 32 32" fill="none" xmlns="http://www.w3.org/2000/svg">
<path d="M8.87142 12.0515C8.89988 12.3262 9.14562 12.5258 9.42029 12.4973C9.69496 12.4689 9.89456 12.2231 9.8661 11.9485L8.87142 12.0515ZM16 6V6.5V6ZM22.1339 11.9485C22.1054 12.2231 22.305 12.4689 22.5797 12.4973C22.8544 12.5258 23.1001 12.3262 23.1286 12.0515L22.1339 11.9485ZM8 12.6667V12.1667C7.72386 12.1667 7.5 12.3905 7.5 12.6667H8ZM8 23.3333H7.5C7.5 23.6095 7.72386 23.8333 8 23.8333V23.3333ZM24 23.3333V23.8333C24.2761 23.8333 24.5 23.6095 24.5 23.3333H24ZM24 12.6667H24.5C24.5 12.3905 24.2761 12.1667 24 12.1667V12.6667ZM16.5 17.3333C16.5 17.0572 16.2761 16.8333 16 16.8333C15.7239 16.8333 15.5 17.0572 15.5 17.3333H16.5ZM15.5 20.6667C15.5 20.9428 15.7239 21.1667 16 21.1667C16.2761 21.1667 16.5 20.9428 16.5 20.6667H15.5ZM9.8661 11.9485C9.73846 10.7166 9.99469 9.78828 10.44 9.07811C10.8897 8.36081 11.5546 7.83111 12.295 7.44279C13.7893 6.65896 15.498 6.5 16 6.5V5.5C15.3968 5.5 13.5136 5.67437 11.8304 6.55721C10.982 7.00222 10.1618 7.63919 9.59272 8.54689C9.01913 9.46172 8.72276 10.6167 8.87142 12.0515L9.8661 11.9485ZM16 6.5C16.502 6.5 18.2107 6.65896 19.705 7.44279C20.4454 7.83111 21.1103 8.36081 21.56 9.07811C22.0053 9.78828 22.2615 10.7166 22.1339 11.9485L23.1286 12.0515C23.2772 10.6167 22.9809 9.46172 22.4073 8.54689C21.8382 7.63919 21.018 7.00222 20.1696 6.55721C18.4864 5.67437 16.6032 5.5 16 5.5V6.5ZM7.5 12.6667V23.3333H8.5V12.6667H7.5ZM8 23.8333H24V22.8333H8V23.8333ZM24.5 23.3333V12.6667H23.5V23.3333H24.5ZM24 12.1667H16V13.1667H24V12.1667ZM16 12.1667H8V13.1667H16V12.1667ZM15.5 17.3333V20.6667H16.5V17.3333H15.5ZM16.8333 17.3333C16.8333 17.7936 16.4602 18.1667 16 18.1667V19.1667C17.0125 19.1667 17.8333 18.3459 17.8333 17.3333H16.8333ZM16 18.1667C15.5398 18.1667 15.1667 17.7936 15.1667 17.3333H14.1667C14.1667 18.3459 14.9875 19.1667 16 19.1667V18.1667ZM15.1667 17.3333C15.1667 16.8731 15.5398 16.5 16 16.5V15.5C14.9875 15.5 14.1667 16.3208 14.1667 17.3333H15.1667ZM16 16.5C16.4602 16.5 16.8333 16.8731 16.8333 17.3333H17.8333C17.8333 16.3208 17.0125 15.5 16 15.5V16.5Z" fill="black"/>
</svg>
