<svg width="32" height="32" viewBox="0 0 32 32" fill="none" xmlns="http://www.w3.org/2000/svg">
<path fill-rule="evenodd" clip-rule="evenodd" d="M13.8334 12C13.8334 10.8034 14.8034 9.83333 16 9.83333C17.1967 9.83333 18.1667 10.8034 18.1667 12C18.1667 13.1966 17.1967 14.1667 16 14.1667C14.8034 14.1667 13.8334 13.1966 13.8334 12ZM16 8.83333C14.2511 8.83333 12.8334 10.2511 12.8334 12C12.8334 13.7489 14.2511 15.1667 16 15.1667C17.7489 15.1667 19.1667 13.7489 19.1667 12C19.1667 10.2511 17.7489 8.83333 16 8.83333ZM19.659 21.6667H12.341C11.2322 21.6667 10.3334 20.7678 10.3334 19.659C10.3334 18.6776 11.0429 17.84 12.011 17.6786L15.0684 17.1691C15.6853 17.0663 16.3148 17.0663 16.9316 17.1691L19.9891 17.6786C20.9572 17.84 21.6667 18.6776 21.6667 19.659C21.6667 20.7678 20.7678 21.6667 19.659 21.6667ZM9.33337 19.659C9.33337 18.1887 10.3963 16.934 11.8466 16.6922L14.904 16.1827C15.6297 16.0617 16.3704 16.0617 17.096 16.1827L20.1535 16.6922C21.6038 16.934 22.6667 18.1887 22.6667 19.659C22.6667 21.3201 21.3201 22.6667 19.659 22.6667H12.341C10.68 22.6667 9.33337 21.3201 9.33337 19.659Z" fill="black"/>
</svg>
